<?xml version="1.0" encoding="UTF-8" standalone="no"?>
<!-- Created with Inkscape (http://www.inkscape.org/) -->

<svg
   xmlns:dc="http://purl.org/dc/elements/1.1/"
   xmlns:cc="http://creativecommons.org/ns#"
   xmlns:rdf="http://www.w3.org/1999/02/22-rdf-syntax-ns#"
   xmlns:svg="http://www.w3.org/2000/svg"
   xmlns="http://www.w3.org/2000/svg"
   xmlns:sodipodi="http://sodipodi.sourceforge.net/DTD/sodipodi-0.dtd"
   xmlns:inkscape="http://www.inkscape.org/namespaces/inkscape"
   width="744.09448819"
   height="1052.3622047"
   id="svg2"
   version="1.1"
   inkscape:version="0.47 r22583"
   sodipodi:docname="waco-logo.svg">
  <defs
     id="defs4">
    <linearGradient
       id="linearGradient3819">
      <stop
         id="stop3821"
         offset="0"
         style="stop-color:#000000;stop-opacity:0;" />
      <stop
         id="stop3823"
         offset="1"
         style="stop-color:#000000;stop-opacity:1;" />
    </linearGradient>
    <linearGradient
       id="linearGradient3797">
      <stop
         id="stop3799"
         offset="0"
         style="stop-color:#00006f;stop-opacity:1;" />
      <stop
         id="stop3801"
         offset="1"
         style="stop-color:#d59a36;stop-opacity:1;" />
    </linearGradient>
    <inkscape:perspective
       sodipodi:type="inkscape:persp3d"
       inkscape:vp_x="0 : 526.18109 : 1"
       inkscape:vp_y="0 : 1000 : 0"
       inkscape:vp_z="744.09448 : 526.18109 : 1"
       inkscape:persp3d-origin="372.04724 : 350.78739 : 1"
       id="perspective10" />
    <inkscape:perspective
       id="perspective2824"
       inkscape:persp3d-origin="0.5 : 0.33333333 : 1"
       inkscape:vp_z="1 : 0.5 : 1"
       inkscape:vp_y="0 : 1000 : 0"
       inkscape:vp_x="0 : 0.5 : 1"
       sodipodi:type="inkscape:persp3d" />
  </defs>
  <sodipodi:namedview
     id="base"
     pagecolor="#ffffff"
     bordercolor="#666666"
     borderopacity="1.0"
     inkscape:pageopacity="0.0"
     inkscape:pageshadow="2"
     inkscape:zoom="0.969502"
     inkscape:cx="415.45322"
     inkscape:cy="361.49343"
     inkscape:document-units="px"
     inkscape:current-layer="layer2"
     showgrid="false"
     inkscape:window-width="1920"
     inkscape:window-height="1058"
     inkscape:window-x="1920"
     inkscape:window-y="0"
     inkscape:window-maximized="0"
     inkscape:snap-global="false" />
  <metadata
     id="metadata7">
    <rdf:RDF>
      <cc:Work
         rdf:about="">
        <dc:format>image/svg+xml</dc:format>
        <dc:type
           rdf:resource="http://purl.org/dc/dcmitype/StillImage" />
        <dc:title></dc:title>
      </cc:Work>
    </rdf:RDF>
  </metadata>
  <g
     inkscape:label="Layer 1"
     inkscape:groupmode="layer"
     id="layer1" />
  <g
     inkscape:groupmode="layer"
     id="layer2"
     inkscape:label="Layer">
    <g
       id="g4104">
      <g
         transform="translate(-181.5365,3.0943722)"
         id="g3715">
        <path
           style="fill:#00006f;fill-opacity:1;stroke:#000000;stroke-width:2.65798068px;stroke-linecap:butt;stroke-linejoin:miter;stroke-opacity:1"
           d="m 20.638967,544.64065 29.812815,-27.74251 c 0,0 2.791279,-2.24921 4.554743,-2.07033 1.763464,0.17888 4.554742,3.31253 4.554742,3.31253 L 122.0854,629.11032 c 0,0 1.70313,2.63539 3.31253,2.89845 1.60938,0.26314 4.96881,-0.82812 4.96881,-0.82812 l 8.69542,-3.7266 -35.60979,33.9535 -66.250728,-118.00911 c 0,0 -1.127037,-2.34128 -2.484388,-2.89847 -1.357351,-0.55719 -4.968829,0.41406 -4.968829,0.41406 l -9.109458,3.72662 z"
           id="path3609"
           sodipodi:nodetypes="cczcczcccczcc" />
        <path
           sodipodi:nodetypes="cczcczcccczcc"
           id="path3611"
           d="M 75.709882,544.64065 105.5227,516.89814 c 0,0 2.79128,-2.24921 4.55474,-2.07033 1.76346,0.17888 4.55474,3.31253 4.55474,3.31253 l 62.52413,110.96998 c 0,0 1.70313,2.63539 3.31254,2.89845 1.60938,0.26314 4.9688,-0.82812 4.9688,-0.82812 l 8.69543,-3.7266 -35.6098,33.9535 -66.250723,-118.00911 c 0,0 -1.127037,-2.34128 -2.484388,-2.89847 -1.357351,-0.55719 -4.968829,0.41406 -4.968829,0.41406 l -9.109458,3.72662 z"
           style="fill:#00006f;fill-opacity:1;stroke:#000000;stroke-width:2.65798068px;stroke-linecap:butt;stroke-linejoin:miter;stroke-opacity:1" />
        <path
           style="fill:#00006f;fill-opacity:1;stroke:#000000;stroke-width:2.65798068px;stroke-linecap:butt;stroke-linejoin:miter;stroke-opacity:1"
           d="m 194.23908,627.37317 c 0,0 25.10056,-17.70175 34.26155,-29.73196 6.2087,-8.15325 11.35678,-17.67081 13.25014,-27.74249 2.07113,-11.01746 1.26985,-22.9763 -2.48441,-33.53943 -2.47963,-6.97675 -6.56731,-13.62457 -12.70749,-18.21897 -6.14017,-4.5944 -9.73188,-7.94923 -22.78782,-8.35268 -13.05595,-0.40346 -18.01776,2.52458 -27.0288,8.76676 -9.01103,6.24219 -26.91436,30.22691 -26.91436,30.22691 0,0 8.47946,-7.18352 13.6642,-9.52355 5.18473,-2.34003 11.15203,-4.16987 16.97676,-4.14068 7.8332,0.0393 16.38028,1.27091 22.77368,5.79695 6.09255,4.31305 9.96977,11.58263 12.422,18.63303 2.22914,6.40897 2.21045,13.52636 1.65626,20.28927 -0.74365,9.07488 -2.62842,18.31901 -6.62504,26.50028 -3.90782,7.99946 -16.45667,21.03656 -16.45667,21.03656 z"
           id="path3634"
           sodipodi:nodetypes="caaazzzczaaaaac" />
        <path
           sodipodi:type="star"
           style="fill:#d59a36;fill-opacity:1;stroke:#000000;stroke-width:0.75099999;stroke-linecap:butt;stroke-linejoin:round;stroke-miterlimit:4;stroke-opacity:1;stroke-dasharray:none"
           id="path3644"
           sodipodi:sides="5"
           sodipodi:cx="399.43188"
           sodipodi:cy="661.31091"
           sodipodi:r1="14.705617"
           sodipodi:r2="5.5881343"
           sodipodi:arg1="1.0168438"
           sodipodi:arg2="1.6451623"
           inkscape:flatsided="false"
           inkscape:rounded="0"
           inkscape:randomized="0"
           d="m 407.16782,673.81733 -8.15112,-6.93373 -9.08859,5.64932 4.07553,-9.89481 -8.18134,-6.89804 10.66993,0.8184 4.03225,-9.91253 2.51884,10.40061 10.67341,0.77175 -9.1132,5.60953 2.56429,10.3895 z"
           transform="matrix(2.2957379,-0.15104847,0.15104847,2.2957379,-835.08745,-886.88527)" />
      </g>
      <g
         transform="translate(-181.5365,3.0943722)"
         id="g3980">
        <path
           id="path3657"
           style="font-size:113.24069977px;font-style:normal;font-variant:normal;font-weight:bold;font-stretch:normal;text-align:start;line-height:125%;writing-mode:lr-tb;text-anchor:start;fill:#000000;fill-opacity:1;stroke:none;font-family:Baskerville;-inkscape-font-specification:Baskerville Bold"
           d="m 279.73549,580.24118 c -2.69097,1.9537 -5.51093,3.42819 -8.45988,4.42346 -2.91213,0.95842 -5.97169,1.43763 -9.17868,1.43763 -4.23917,0 -7.42775,-0.95842 -9.56575,-2.87525 -2.10115,-1.91683 -3.15172,-4.29444 -3.15172,-7.13284 0,-4.01797 2.11957,-7.57517 6.35873,-10.67161 4.23914,-3.0964 11.90647,-6.52458 23.00202,-10.28455 l 0,-4.09171 c -3e-5,-2.91208 -0.70041,-4.77362 -2.10114,-5.58462 -1.4008,-0.84779 -3.0596,-1.27171 -4.9764,-1.27175 -4.64466,4e-5 -7.22502,1.6957 -7.74107,5.08698 -0.36864,2.32236 -1.10588,4.01802 -2.21173,5.08699 -1.10588,1.03217 -2.81997,1.54824 -5.14228,1.54821 -2.10115,3e-5 -3.77838,-0.5529 -5.03169,-1.6588 -1.21646,-1.14269 -1.82468,-2.46973 -1.82468,-3.98112 0,-3.42814 2.26702,-6.34025 6.80108,-8.73634 4.53404,-2.396 10.59786,-3.59402 18.1915,-3.59406 4.23912,4e-5 7.77789,0.25808 10.61632,0.7741 2.8752,0.51612 5.17909,1.47454 6.91166,2.87525 1.76934,1.40081 2.93049,2.8753 3.48348,4.42347 0.58974,1.54825 0.88464,3.64939 0.88469,6.30344 l 0,21.01145 c -5e-5,3.17016 0.95836,4.75524 2.87525,4.75523 1.65875,10e-6 2.70932,-1.03213 3.15172,-3.09643 l 4.58935,0 c -0.11065,3.79682 -1.51142,6.59834 -4.2023,8.40459 -2.65413,1.80625 -5.84271,2.70937 -9.56574,2.70937 -6.78269,0 -11.3536,-1.9537 -13.71274,-5.86109 m -0.99528,-5.97168 0,-12.93863 c -5.12387,2.13803 -8.47833,4.07329 -10.06338,5.80579 -1.54824,1.73254 -2.32234,3.52036 -2.32232,5.36346 -2e-5,1.40077 0.46075,2.67252 1.38233,3.81523 0.92153,1.10588 2.13798,1.65881 3.64936,1.6588 1.32701,10e-6 2.59876,-0.31332 3.81524,-0.93998 1.21642,-0.62665 2.39601,-1.54821 3.53877,-2.76467" />
        <path
           id="path3659"
           style="font-size:113.24069977px;font-style:normal;font-variant:normal;font-weight:bold;font-stretch:normal;text-align:start;line-height:125%;writing-mode:lr-tb;text-anchor:start;fill:#000000;fill-opacity:1;stroke:none;font-family:Baskerville;-inkscape-font-specification:Baskerville Bold"
           d="m 355.32145,571.11778 5.63992,2.4882 c -1.54827,4.23916 -4.36822,7.5199 -8.45988,9.84221 -4.05488,2.28546 -8.79167,3.42818 -14.21038,3.42819 -7.40933,-1e-5 -13.69433,-2.06429 -18.85502,-6.19285 -5.12385,-4.16543 -7.68577,-9.89749 -7.68577,-17.19622 0,-7.66731 2.80152,-13.84173 8.40458,-18.52326 5.60304,-4.68146 12.86489,-7.02221 21.78557,-7.02225 5.52929,4e-5 9.89746,1.01375 13.10451,3.04113 3.24382,2.02746 4.86576,4.69997 4.86581,8.01753 -5e-5,1.88001 -0.64514,3.5388 -1.93526,4.9764 -1.25337,1.40079 -2.89373,2.10117 -4.92111,2.10114 -4.01802,3e-5 -6.57994,-2.61718 -7.68577,-7.85165 -0.3318,-1.54817 -0.82943,-2.65404 -1.49292,-3.3176 -0.66355,-0.66348 -1.80628,-0.99524 -3.42818,-0.99528 -3.28077,4e-5 -5.75053,1.30865 -7.40931,3.92583 -1.62196,2.58039 -2.43292,6.46935 -2.4329,11.66689 -2e-5,7.11442 0.97682,12.23826 2.93054,15.37154 1.99053,3.09643 5.08696,4.64464 9.28928,4.64464 5.75046,0 9.91589,-2.80152 12.49629,-8.40459" />
        <path
           id="path3661"
           style="font-size:113.24069977px;font-style:normal;font-variant:normal;font-weight:bold;font-stretch:normal;text-align:start;line-height:125%;writing-mode:lr-tb;text-anchor:start;fill:#000000;fill-opacity:1;stroke:none;font-family:Baskerville;-inkscape-font-specification:Baskerville Bold"
           d="m 367.3201,562.27085 c -1e-5,-7.59358 2.69093,-13.54682 8.07282,-17.85974 5.38186,-4.31283 11.88804,-6.46927 19.51854,-6.46931 7.44613,4e-5 13.93387,2.10119 19.46324,6.30343 5.52928,4.16547 8.29394,10.19243 8.294,18.08092 -6e-5,7.48304 -2.70943,13.45471 -8.12812,17.91503 -5.41879,4.42346 -11.98025,6.63519 -19.68441,6.6352 -7.51992,-1e-5 -13.98923,-2.10115 -19.40796,-6.30344 -5.41875,-4.23915 -8.12812,-10.33984 -8.12811,-18.30209 m 18.9656,-0.55293 c -2e-5,7.07756 0.64507,12.03552 1.93527,14.8739 1.32701,2.80153 3.61247,4.2023 6.85637,4.20229 2.61718,10e-6 4.69989,-1.17958 6.24814,-3.53877 1.58504,-2.35917 2.37757,-7.39086 2.37762,-15.09507 -5e-5,-7.00379 -0.70043,-11.74058 -2.10115,-14.21038 -1.4008,-2.50659 -3.61253,-3.75991 -6.6352,-3.75995 -2.39607,4e-5 -4.44192,1.06904 -6.13756,3.20701 -1.69568,2.10118 -2.54351,6.87483 -2.54349,14.32097" />
        <path
           id="path3663"
           style="font-size:113.24069977px;font-style:normal;font-variant:normal;font-weight:bold;font-stretch:normal;text-align:start;line-height:125%;writing-mode:lr-tb;text-anchor:start;fill:#00006f;fill-opacity:1;stroke:#000000;stroke-width:2.65799999;stroke-miterlimit:4;stroke-opacity:1;stroke-dasharray:none;font-family:Baskerville;-inkscape-font-specification:Baskerville Bold"
           d="m 485.64778,516.76446 -6.30344,0 c -3.75997,7e-5 -6.52463,0.40555 -8.294,1.21645 -1.7694,0.81104 -3.26231,2.43297 -4.47875,4.86581 -1.17961,2.39611 -1.89842,5.25292 -2.15644,8.57047 l -6.24815,0 0,-21.34322 75.03302,0 0,21.34322 -6.24814,0 c -1.17966,-5.75045 -2.83846,-9.62098 -4.9764,-11.6116 -2.13807,-2.02735 -5.54782,-3.04106 -10.22926,-3.04113 l -6.46932,0 0,52.97099 c -5e-5,3.4282 0.57132,5.82424 1.71409,7.18813 1.17954,1.32705 3.63088,1.99057 7.35402,1.99056 l 1.93526,0 0,6.13756 -41.41469,0 0,-6.13756 1.76939,0 c 3.75992,10e-6 6.19282,-0.68194 7.29871,-2.04585 1.1427,-1.40076 1.71407,-3.77837 1.7141,-7.13284 l 0,-52.97099" />
        <path
           id="path3665"
           style="font-size:113.24069977px;font-style:normal;font-variant:normal;font-weight:bold;font-stretch:normal;text-align:start;line-height:125%;writing-mode:lr-tb;text-anchor:start;fill:#000000;fill-opacity:1;stroke:none;font-family:Baskerville;-inkscape-font-specification:Baskerville Bold"
           d="m 560.68082,561.8838 c -3e-5,6.00856 1.01368,10.52417 3.04113,13.54686 2.06425,3.02271 5.14224,4.53406 9.23398,4.53405 4.3497,1e-5 8.34925,-2.21172 11.99865,-6.6352 l 5.14228,3.09643 c -2.1012,3.02271 -5.1239,5.52933 -9.06811,7.51989 -3.90743,1.9537 -8.23874,2.93054 -12.99392,2.93055 -7.29875,-1e-5 -13.54688,-2.21174 -18.74444,-6.6352 -5.19757,-4.46032 -7.79636,-10.46885 -7.79635,-18.02562 -1e-5,-7.55672 2.50662,-13.49153 7.51989,-17.80445 5.0501,-4.31283 11.11393,-6.46927 18.1915,-6.46931 7.11436,4e-5 12.93859,1.9906 17.47268,5.97167 4.57086,3.9443 6.85632,9.9344 6.85637,17.97033 l -30.85366,0 m -0.0553,-5.58462 13.98921,0 c -0.22121,-8.14652 -2.59882,-12.21979 -7.13284,-12.21983 -2.28548,4e-5 -3.99957,1.01375 -5.14227,3.04114 -1.14276,2.02745 -1.71412,5.08701 -1.7141,9.17869" />
        <path
           id="path3667"
           style="font-size:113.24069977px;font-style:normal;font-variant:normal;font-weight:bold;font-stretch:normal;text-align:start;line-height:125%;writing-mode:lr-tb;text-anchor:start;fill:#000000;fill-opacity:1;stroke:none;font-family:Baskerville;-inkscape-font-specification:Baskerville Bold"
           d="m 643.06783,571.11778 5.63992,2.4882 c -1.54827,4.23916 -4.36823,7.5199 -8.45988,9.84221 -4.05488,2.28546 -8.79167,3.42818 -14.21038,3.42819 -7.40933,-1e-5 -13.69433,-2.06429 -18.85502,-6.19285 -5.12385,-4.16543 -7.68577,-9.89749 -7.68577,-17.19622 0,-7.66731 2.80152,-13.84173 8.40458,-18.52326 5.60304,-4.68146 12.86489,-7.02221 21.78557,-7.02225 5.52929,4e-5 9.89746,1.01375 13.10451,3.04113 3.24382,2.02746 4.86576,4.69997 4.86581,8.01753 -5e-5,1.88001 -0.64514,3.5388 -1.93526,4.9764 -1.25337,1.40079 -2.89373,2.10117 -4.92111,2.10114 -4.01802,3e-5 -6.57994,-2.61718 -7.68577,-7.85165 -0.3318,-1.54817 -0.82943,-2.65404 -1.49292,-3.3176 -0.66355,-0.66348 -1.80628,-0.99524 -3.42818,-0.99528 -3.28077,4e-5 -5.75053,1.30865 -7.40931,3.92583 -1.62196,2.58039 -2.43292,6.46935 -2.4329,11.66689 -2e-5,7.11442 0.97682,12.23826 2.93054,15.37154 1.99053,3.09643 5.08696,4.64464 9.28928,4.64464 5.75046,0 9.91589,-2.80152 12.49629,-8.40459" />
        <path
           id="path3669"
           style="font-size:113.24069977px;font-style:normal;font-variant:normal;font-weight:bold;font-stretch:normal;text-align:start;line-height:125%;writing-mode:lr-tb;text-anchor:start;fill:#000000;fill-opacity:1;stroke:none;font-family:Baskerville;-inkscape-font-specification:Baskerville Bold"
           d="m 678.06851,554.4745 0,17.3621 c -3e-5,2.61722 0.40545,4.49719 1.21645,5.63991 0.81094,1.10588 2.28542,1.67724 4.42346,1.7141 l 0,5.86109 -30.79837,0 0,-5.86109 c 3.17014,0 5.17913,-0.5345 6.02697,-1.60351 0.84782,-1.069 1.27174,-2.98583 1.27175,-5.7505 l 0,-45.5064 c -10e-6,-2.7646 -0.44236,-4.68144 -1.32704,-5.7505 -0.84784,-1.06894 -2.8384,-1.60344 -5.97168,-1.60351 l 0,-5.86109 25.15846,-4.36817 0,37.2124 c 2.39601,-2.6909 4.97636,-4.69989 7.74106,-6.02697 2.76463,-1.327 5.7136,-1.99052 8.84693,-1.99056 3.83362,4e-5 7.09592,0.82944 9.78691,2.4882 2.69089,1.65884 4.49714,3.66783 5.41875,6.02697 0.92149,2.35921 1.38227,5.67681 1.38233,9.95279 l 0,15.42684 c -6e-5,2.8384 0.44229,4.77366 1.32704,5.80579 0.88463,1.03215 2.78303,1.54822 5.69521,1.54822 l 0,5.86109 -30.79837,0 0,-5.86109 c 1.47445,-0.11058 2.78306,-0.55293 3.92582,-1.32704 1.14269,-0.7741 1.71405,-2.78309 1.7141,-6.02697 l 0,-17.3621 c -5e-5,-4.75519 -1.78786,-7.1328 -5.36346,-7.13284 -1.47452,4e-5 -3.02273,0.58983 -4.64463,1.76938 -1.62197,1.17963 -3.2992,2.96745 -5.03169,5.36346" />
        <path
           id="path3671"
           style="font-size:113.24069977px;font-style:normal;font-variant:normal;font-weight:bold;font-stretch:normal;text-align:start;line-height:125%;writing-mode:lr-tb;text-anchor:start;fill:#00006f;fill-opacity:1;stroke:#000000;stroke-width:2.65799999;stroke-miterlimit:4;stroke-opacity:1;stroke-dasharray:none;font-family:Baskerville;-inkscape-font-specification:Baskerville Bold"
           d="m 818.6794,560.11441 -0.33176,24.93729 -68.34253,0 0,-6.13756 1.10586,0 c 3.75994,10e-6 6.19284,-0.68194 7.29872,-2.04585 1.14272,-1.40076 1.71408,-3.77837 1.71409,-7.13284 l 0,-44.34524 c -10e-6,-3.42812 -0.58981,-5.80573 -1.76938,-7.13283 -1.1796,-1.36384 -3.59408,-2.04579 -7.24343,-2.04585 l -1.10586,0 0,-6.13756 40.19823,0 0,6.13756 -1.49292,0 c -3.75998,6e-5 -6.21131,0.70045 -7.35401,2.10114 -1.1059,1.36397 -1.65883,3.72315 -1.6588,7.07754 l 0,42.79703 c -3e-5,3.20702 0.18428,5.3266 0.55294,6.35873 0.36859,1.03215 1.327,1.93527 2.87525,2.70937 1.58504,0.73725 4.33127,1.10587 8.2387,1.10587 6.56142,0 11.46409,-1.64036 14.70802,-4.92111 3.24381,-3.31758 5.45555,-7.75947 6.6352,-13.32569 l 5.97168,0" />
        <path
           id="path3673"
           style="font-size:113.24069977px;font-style:normal;font-variant:normal;font-weight:bold;font-stretch:normal;text-align:start;line-height:125%;writing-mode:lr-tb;text-anchor:start;fill:#000000;fill-opacity:1;stroke:none;font-family:Baskerville;-inkscape-font-specification:Baskerville Bold"
           d="m 861.08938,578.85885 c -2.39608,2.65408 -4.99487,4.66307 -7.79636,6.02697 -2.76469,1.32704 -5.75053,1.99055 -8.95751,1.99056 -4.09173,-1e-5 -7.81481,-1.14273 -11.16925,-3.42819 -3.31761,-2.28545 -4.97641,-6.65362 -4.9764,-13.10451 l 0,-17.3621 c -10e-6,-2.83836 -0.46079,-4.77362 -1.38233,-5.8058 -0.8847,-1.0321 -2.70938,-1.54817 -5.47404,-1.54821 l 0,-5.86109 24.71611,0 0,29.58192 c -3e-5,2.87526 0.44232,4.93954 1.32704,6.19285 0.88466,1.25332 2.28543,1.87998 4.20229,1.87997 1.43759,1e-5 2.94894,-0.58979 4.53405,-1.76939 1.58504,-1.17958 3.24384,-2.94896 4.9764,-5.30815 l 0,-17.3621 c -4e-5,-2.76463 -0.44239,-4.68147 -1.32704,-5.75051 -0.84787,-1.06896 -2.87529,-1.60346 -6.08226,-1.6035 l 0,-5.86109 25.32433,0 0,32.07012 c -6e-5,2.80153 0.42386,4.7368 1.27175,5.80579 0.88463,1.03215 2.96734,1.54822 6.24814,1.54822 l 0,5.86109 c -0.99534,-0.0369 -1.89847,-0.0553 -2.70937,-0.0553 -6.7827,0 -14.35788,0.62666 -22.72555,1.87998 l 0,-8.01753" />
        <path
           id="path3675"
           style="font-size:113.24069977px;font-style:normal;font-variant:normal;font-weight:bold;font-stretch:normal;text-align:start;line-height:125%;writing-mode:lr-tb;text-anchor:start;fill:#000000;fill-opacity:1;stroke:none;font-family:Baskerville;-inkscape-font-specification:Baskerville Bold"
           d="m 915.9403,553.97686 0,17.97032 c -3e-5,2.58037 0.38702,4.42348 1.16116,5.52933 0.77407,1.10588 2.15641,1.67724 4.147,1.7141 l 0,5.86109 -30.96426,0 0,-5.86109 c 3.20701,0 5.25286,-0.49764 6.13756,-1.49292 0.88468,-1.03214 1.32703,-2.94897 1.32704,-5.75051 l 0,-15.48212 c -10e-6,-2.8015 -0.44236,-4.71833 -1.32704,-5.75051 -0.84784,-1.06897 -2.89369,-1.60347 -6.13756,-1.60351 l 0,-5.86109 24.55023,-4.03641 c 0.62663,1.43767 0.99525,3.6494 1.10587,6.6352 2.43287,-2.65404 4.97636,-4.62616 7.63048,-5.91638 2.6909,-1.327 5.47399,-1.99052 8.34929,-1.99056 5.16066,4e-5 9.21549,1.43767 12.16452,4.31287 2.94892,2.83843 4.42341,6.74582 4.42347,11.72219 l 0,17.97032 c -6e-5,2.76468 0.44228,4.66308 1.32704,5.69521 0.92149,1.03215 2.89362,1.54822 5.91638,1.54822 l 0,5.86109 -30.79837,0 0,-5.86109 c 1.54817,-0.0737 2.83835,-0.51607 3.87053,-1.32704 1.06896,-0.81096 1.60346,-2.78309 1.60351,-5.91639 l 0,-16.58799 c -5e-5,-3.02267 -0.42396,-5.08695 -1.27175,-6.19285 -0.81101,-1.10583 -1.9906,-1.65876 -3.53877,-1.6588 -1.54825,4e-5 -3.13332,0.53454 -4.75523,1.6035 -1.62197,1.06904 -3.26233,2.69098 -4.9211,4.86582" />
        <path
           id="path3677"
           style="font-size:113.24069977px;font-style:normal;font-variant:normal;font-weight:bold;font-stretch:normal;text-align:start;line-height:125%;writing-mode:lr-tb;text-anchor:start;fill:#000000;fill-opacity:1;stroke:none;font-family:Baskerville;-inkscape-font-specification:Baskerville Bold"
           d="m 1004.0225,571.11778 5.64,2.4882 c -1.5483,4.23916 -4.3683,7.5199 -8.4599,9.84221 -4.0549,2.28546 -8.79169,3.42818 -14.2104,3.42819 -7.40933,-1e-5 -13.69433,-2.06429 -18.85502,-6.19285 -5.12385,-4.16543 -7.68577,-9.89749 -7.68577,-17.19622 0,-7.66731 2.80152,-13.84173 8.40458,-18.52326 5.60304,-4.68146 12.86489,-7.02221 21.78557,-7.02225 5.52929,4e-5 9.89744,1.01375 13.10454,3.04113 3.2438,2.02746 4.8657,4.69997 4.8658,8.01753 -10e-5,1.88001 -0.6452,3.5388 -1.9353,4.9764 -1.2533,1.40079 -2.8937,2.10117 -4.9211,2.10114 -4.01801,3e-5 -6.57993,-2.61718 -7.68576,-7.85165 -0.33179,-1.54817 -0.82943,-2.65404 -1.49292,-3.3176 -0.66355,-0.66348 -1.80628,-0.99524 -3.42818,-0.99528 -3.28077,4e-5 -5.75053,1.30865 -7.4093,3.92583 -1.62197,2.58039 -2.43293,6.46935 -2.43291,11.66689 -2e-5,7.11442 0.97682,12.23826 2.93055,15.37154 1.99053,3.09643 5.08695,4.64464 9.28927,4.64464 5.75046,0 9.91585,-2.80152 12.49625,-8.40459" />
        <path
           id="path3679"
           style="font-size:113.24069977px;font-style:normal;font-variant:normal;font-weight:bold;font-stretch:normal;text-align:start;line-height:125%;writing-mode:lr-tb;text-anchor:start;fill:#000000;fill-opacity:1;stroke:none;font-family:Baskerville;-inkscape-font-specification:Baskerville Bold"
           d="m 1039.0232,554.4745 0,17.3621 c 0,2.61722 0.4055,4.49719 1.2165,5.63991 0.8109,1.10588 2.2854,1.67724 4.4235,1.7141 l 0,5.86109 -30.7984,0 0,-5.86109 c 3.1701,0 5.1791,-0.5345 6.027,-1.60351 0.8478,-1.069 1.2717,-2.98583 1.2717,-5.7505 l 0,-45.5064 c 0,-2.7646 -0.4423,-4.68144 -1.327,-5.7505 -0.8479,-1.06894 -2.8384,-1.60344 -5.9717,-1.60351 l 0,-5.86109 25.1584,-4.36817 0,37.2124 c 2.3961,-2.6909 4.9764,-4.69989 7.7411,-6.02697 2.7646,-1.327 5.7136,-1.99052 8.8469,-1.99056 3.8337,4e-5 7.096,0.82944 9.787,2.4882 2.6908,1.65884 4.4971,3.66783 5.4187,6.02697 0.9215,2.35921 1.3823,5.67681 1.3823,9.95279 l 0,15.42684 c 0,2.8384 0.4423,4.77366 1.3271,5.80579 0.8846,1.03215 2.783,1.54822 5.6952,1.54822 l 0,5.86109 -30.7984,0 0,-5.86109 c 1.4745,-0.11058 2.7831,-0.55293 3.9258,-1.32704 1.1427,-0.7741 1.7141,-2.78309 1.7141,-6.02697 l 0,-17.3621 c 0,-4.75519 -1.7878,-7.1328 -5.3634,-7.13284 -1.4745,4e-5 -3.0228,0.58983 -4.6447,1.76938 -1.6219,1.17963 -3.2992,2.96745 -5.0317,5.36346" />
      </g>
      <g
         transform="matrix(1.1599076,0,0,1.1599076,-290.27895,-98.845038)"
         id="g3943">
        <path
           id="path3838"
           style="font-size:34.70301056px;font-style:normal;font-variant:normal;font-weight:bold;font-stretch:normal;text-align:start;line-height:125%;writing-mode:lr-tb;text-anchor:start;fill:#000000;fill-opacity:1;stroke:none;font-family:Baskerville;-inkscape-font-specification:Baskerville Bold"
           d="m 312.42414,638.54825 -0.44057,1.13531 c -0.31631,0.80206 -0.47446,1.36688 -0.47445,1.69448 -10e-6,0.55353 0.18639,0.94326 0.55918,1.16919 0.37278,0.21464 0.98279,0.32196 1.83004,0.32195 l 0,1.88088 -7.59129,0 0,-1.88088 c 1.44596,10e-6 2.66034,-1.23132 3.64314,-3.69397 l 7.066,-17.80901 1.98254,0 7.20155,17.79207 c 0.71167,1.76226 1.35557,2.82414 1.93172,3.18563 0.5761,0.35019 1.12963,0.52529 1.66059,0.52528 l 0,1.88088 -11.40387,0 0,-1.88088 c 1.02797,10e-6 1.66623,-0.096 1.91476,-0.28806 0.24851,-0.20333 0.37278,-0.4575 0.37279,-0.76251 -10e-6,-0.27112 -0.10168,-0.62696 -0.30501,-1.06753 l -0.22028,-0.52529 -0.66085,-1.67754 -7.06599,0 m 0.72863,-1.94865 5.57484,0 -2.86367,-6.86266 -2.71117,6.86266" />
        <path
           id="path3840"
           style="font-size:34.70301056px;font-style:normal;font-variant:normal;font-weight:bold;font-stretch:normal;text-align:start;line-height:125%;writing-mode:lr-tb;text-anchor:start;fill:#000000;fill-opacity:1;stroke:none;font-family:Baskerville;-inkscape-font-specification:Baskerville Bold"
           d="m 339.63753,644.36033 0,-7.8624 2.03338,0 c 0.56483,2.34969 1.41207,4.02722 2.54173,5.03261 1.12965,1.0054 2.34967,1.50809 3.66008,1.50809 0.97149,0 1.74531,-0.28806 2.32144,-0.86418 0.57611,-0.57612 0.86418,-1.25392 0.86419,-2.03338 -1e-5,-0.55353 -0.18076,-1.10706 -0.54224,-1.6606 -0.3615,-0.55352 -1.22003,-1.16918 -2.57561,-1.84698 -2.60951,-1.2991 -4.37177,-2.24801 -5.28679,-2.84673 -0.91502,-0.61001 -1.6493,-1.38947 -2.20282,-2.33839 -0.55354,-0.9489 -0.8303,-2.03901 -0.8303,-3.27035 0,-1.97688 0.70603,-3.60358 2.1181,-4.88011 1.42336,-1.28779 3.06701,-1.93169 4.93095,-1.93171 1.95429,2e-5 3.61488,0.65522 4.98178,1.9656 0.22592,-0.33888 0.41231,-0.85852 0.55918,-1.55893 l 1.94865,0 0,6.77793 -1.89782,0 c -0.33891,-1.50242 -0.98281,-2.73939 -1.93171,-3.71091 -0.94892,-0.97149 -2.01644,-1.45724 -3.20257,-1.45726 -0.89244,2e-5 -1.60412,0.24855 -2.13505,0.74557 -0.51965,0.49707 -0.77947,1.11838 -0.77946,1.86393 -1e-5,0.57615 0.16944,1.11273 0.50834,1.60976 0.33889,0.48577 0.7964,0.89245 1.37253,1.22003 0.57612,0.31632 1.79615,0.90939 3.66009,1.77921 1.67187,0.79077 2.90885,1.4968 3.71092,2.1181 0.80203,0.62132 1.43464,1.40643 1.89782,2.35533 0.47443,0.93763 0.71166,1.95431 0.71168,3.05007 -2e-5,2.03339 -0.75124,3.72787 -2.25366,5.08345 -1.50246,1.34429 -3.29296,2.01644 -5.37151,2.01644 -1.18615,0 -2.3497,-0.24853 -3.49064,-0.74558 -1.12966,-0.49704 -2.03338,-1.15789 -2.71117,-1.98254 -0.25983,0.50835 -0.45187,1.12966 -0.57613,1.86393 l -2.03338,0" />
        <path
           id="path3842"
           style="font-size:34.70301056px;font-style:normal;font-variant:normal;font-weight:bold;font-stretch:normal;text-align:start;line-height:125%;writing-mode:lr-tb;text-anchor:start;fill:#000000;fill-opacity:1;stroke:none;font-family:Baskerville;-inkscape-font-specification:Baskerville Bold"
           d="m 358.53102,637.76879 c 0,-2.32708 0.82464,-4.15147 2.47394,-5.47318 1.64929,-1.32168 3.64313,-1.98253 5.98153,-1.98254 2.28189,10e-6 4.27008,0.64391 5.96458,1.93171 1.69446,1.27652 2.5417,3.1235 2.54172,5.54096 -2e-5,2.2932 -0.83031,4.12324 -2.49089,5.49012 -1.66061,1.35559 -3.67139,2.03338 -6.03236,2.03338 -2.3045,0 -4.28705,-0.6439 -5.94763,-1.93171 -1.6606,-1.2991 -2.49089,-3.16868 -2.49089,-5.60874 m 5.81207,-0.16945 c 0,2.16895 0.19769,3.68833 0.59307,4.55816 0.40667,0.85854 1.10706,1.28781 2.10116,1.28781 0.80205,0 1.4403,-0.36149 1.91477,-1.08447 0.48574,-0.72298 0.72861,-2.26495 0.72862,-4.62594 -10e-6,-2.14633 -0.21464,-3.59794 -0.6439,-4.35482 -0.42928,-0.76815 -1.10707,-1.15224 -2.03338,-1.15225 -0.73428,10e-6 -1.36124,0.32761 -1.88087,0.9828 -0.51965,0.64392 -0.77947,2.10682 -0.77947,4.38871" />
        <path
           id="path3844"
           style="font-size:34.70301056px;font-style:normal;font-variant:normal;font-weight:bold;font-stretch:normal;text-align:start;line-height:125%;writing-mode:lr-tb;text-anchor:start;fill:#000000;fill-opacity:1;stroke:none;font-family:Baskerville;-inkscape-font-specification:Baskerville Bold"
           d="m 391.38704,640.47996 1.72838,0.76252 c -0.47447,1.29911 -1.33866,2.3045 -2.59256,3.01618 -1.24264,0.70039 -2.69424,1.05058 -4.35482,1.05058 -2.27062,0 -4.19668,-0.63261 -5.77819,-1.89782 -1.57022,-1.27651 -2.35533,-3.03312 -2.35533,-5.26984 0,-2.34968 0.85853,-4.24185 2.57561,-5.67652 1.71707,-1.43465 3.94249,-2.15198 6.67627,-2.15199 1.69447,10e-6 3.03311,0.31067 4.01592,0.93196 0.99408,0.62133 1.49113,1.44032 1.49115,2.457 -2e-5,0.57614 -0.19771,1.08448 -0.59307,1.52504 -0.3841,0.42928 -0.8868,0.64391 -1.50809,0.6439 -1.23134,10e-6 -2.01645,-0.80205 -2.35533,-2.40617 -0.10169,-0.47444 -0.25419,-0.81334 -0.45752,-1.01669 -0.20334,-0.20332 -0.55354,-0.30499 -1.05057,-0.305 -1.00541,10e-6 -1.76228,0.40104 -2.27061,1.20308 -0.49706,0.79077 -0.74558,1.98256 -0.74557,3.57536 -10e-6,2.18024 0.29935,3.75046 0.89807,4.71066 0.61001,0.94892 1.55892,1.42337 2.84673,1.42337 1.76225,0 3.03876,-0.85854 3.82953,-2.57562" />
        <path
           id="path3846"
           style="font-size:34.70301056px;font-style:normal;font-variant:normal;font-weight:bold;font-stretch:normal;text-align:start;line-height:125%;writing-mode:lr-tb;text-anchor:start;fill:#000000;fill-opacity:1;stroke:none;font-family:Baskerville;-inkscape-font-specification:Baskerville Bold"
           d="m 396.74161,624.43321 c -10e-6,-0.83592 0.29935,-1.55325 0.89807,-2.15199 0.59871,-0.60999 1.31604,-0.915 2.15199,-0.91502 0.84724,2e-5 1.56457,0.29938 2.152,0.89807 0.58741,0.59874 0.88112,1.32172 0.88113,2.16894 -10e-6,0.84726 -0.29937,1.57024 -0.89808,2.16894 -0.58743,0.59873 -1.29911,0.89809 -2.13505,0.89807 -0.86983,2e-5 -1.59846,-0.30498 -2.18588,-0.91502 -0.57613,-0.62129 -0.86419,-1.33862 -0.86418,-2.15199 m 5.7104,5.87986 0,10.38718 c -10e-6,0.85854 0.13555,1.45161 0.40668,1.7792 0.27111,0.31631 0.90371,0.47446 1.89782,0.47446 l 0,1.79615 -10.37024,0 0,-1.79615 0.38974,0 c 0.9602,0 1.56457,-0.16945 1.81309,-0.50835 0.25982,-0.33889 0.38973,-0.92066 0.38973,-1.74531 l 0,-5.04956 c 0,-0.83594 -0.12991,-1.41771 -0.38973,-1.74532 -0.25982,-0.33889 -0.86419,-0.50833 -1.81309,-0.50834 l -0.38974,0 0,-1.79616 8.06574,-1.2878" />
        <path
           id="path3848"
           style="font-size:34.70301056px;font-style:normal;font-variant:normal;font-weight:bold;font-stretch:normal;text-align:start;line-height:125%;writing-mode:lr-tb;text-anchor:start;fill:#000000;fill-opacity:1;stroke:none;font-family:Baskerville;-inkscape-font-specification:Baskerville Bold"
           d="m 416.34678,643.27586 c -0.82466,0.59872 -1.68884,1.05058 -2.59256,1.35559 -0.89243,0.29371 -1.83005,0.44056 -2.81284,0.44056 -1.29911,0 -2.27626,-0.29371 -2.93146,-0.88113 -0.6439,-0.58742 -0.96585,-1.31604 -0.96585,-2.18588 0,-1.23132 0.64955,-2.32144 1.94865,-3.27035 1.2991,-0.94891 3.64878,-1.99949 7.04905,-3.15174 l 0,-1.25392 c -10e-6,-0.89242 -0.21464,-1.46289 -0.6439,-1.71143 -0.42928,-0.25981 -0.93762,-0.38972 -1.52503,-0.38973 -1.42338,10e-6 -2.21413,0.51966 -2.37228,1.55893 -0.11297,0.71169 -0.3389,1.23133 -0.67779,1.55892 -0.33891,0.31631 -0.86419,0.47446 -1.57587,0.47446 -0.64391,0 -1.1579,-0.16944 -1.54198,-0.50835 -0.37279,-0.35018 -0.55918,-0.75686 -0.55918,-1.22003 0,-1.05056 0.69473,-1.94299 2.08421,-2.67728 1.38947,-0.73426 3.24775,-1.1014 5.57485,-1.10141 1.29909,10e-6 2.38356,0.0791 3.25341,0.23722 0.88112,0.15817 1.58715,0.45188 2.1181,0.88114 0.54222,0.42928 0.89806,0.88114 1.06753,1.35558 0.18073,0.47447 0.2711,1.11837 0.27111,1.93171 l 0,6.43904 c -10e-6,0.9715 0.2937,1.45725 0.88113,1.45725 0.50833,0 0.83028,-0.3163 0.96586,-0.94891 l 1.40642,0 c -0.0339,1.16355 -0.46318,2.02209 -1.28781,2.57562 -0.81337,0.55353 -1.79052,0.83029 -2.93145,0.83029 -2.07858,0 -3.47935,-0.59871 -4.20232,-1.79615 m -0.30501,-1.83004 0,-3.96509 c -1.57023,0.65521 -2.59821,1.24827 -3.08396,1.77921 -0.47446,0.53094 -0.71168,1.07882 -0.71168,1.64364 0,0.42928 0.1412,0.81901 0.42362,1.1692 0.28241,0.3389 0.65519,0.50835 1.11836,0.50834 0.40667,10e-6 0.7964,-0.096 1.16919,-0.28806 0.37278,-0.19204 0.73427,-0.47445 1.08447,-0.84724" />
        <path
           id="path3850"
           style="font-size:34.70301056px;font-style:normal;font-variant:normal;font-weight:bold;font-stretch:normal;text-align:start;line-height:125%;writing-mode:lr-tb;text-anchor:start;fill:#000000;fill-opacity:1;stroke:none;font-family:Baskerville;-inkscape-font-specification:Baskerville Bold"
           d="m 433.18994,621.3662 0,19.33405 c -10e-6,0.86983 0.13555,1.4629 0.40667,1.7792 0.27111,0.31631 0.92066,0.47446 1.94866,0.47446 l 0,1.79615 -10.3194,0 0,-1.79615 c 0.90372,0 1.54197,-0.10732 1.91476,-0.32195 0.37279,-0.21463 0.55918,-0.85854 0.55918,-1.93171 l 0,-14.04727 c 0,-0.89241 -0.14686,-1.48547 -0.44056,-1.7792 -0.28242,-0.30499 -0.96021,-0.45749 -2.03338,-0.45751 l 0,-1.8131 7.96407,-1.23697" />
        <path
           id="path3852"
           style="font-size:34.70301056px;font-style:normal;font-variant:normal;font-weight:bold;font-stretch:normal;text-align:start;line-height:125%;writing-mode:lr-tb;text-anchor:start;fill:#000000;fill-opacity:1;stroke:none;font-family:Baskerville;-inkscape-font-specification:Baskerville Bold"
           d="m 460.40333,636.00653 0,-1.86393 10.75997,0 0,1.86393 c -0.85857,0.14686 -1.41775,0.40104 -1.67754,0.76252 -0.25985,0.3502 -0.38976,1.08447 -0.38973,2.20282 l 0,4.81234 c -0.36152,-0.0226 -0.65523,-0.0339 -0.88114,-0.0339 -1.11838,0 -3.01055,0.28806 -5.67651,0.86418 -1.90914,0.40668 -3.5076,0.61002 -4.79539,0.61002 -3.49064,0 -6.31478,-1.16355 -8.47241,-3.49064 -2.15765,-2.33838 -3.23647,-5.06085 -3.23647,-8.16741 0,-3.33246 1.1353,-6.19614 3.40591,-8.59102 2.2819,-2.40615 5.10604,-3.60923 8.47242,-3.60925 2.74504,2e-5 5.15686,0.8755 7.23544,2.62645 0.36147,-0.74556 0.58175,-1.54196 0.66085,-2.38923 l 1.8131,0 0.20333,8.03185 -1.84698,0 c -1.16357,-3.90859 -3.43417,-5.86289 -6.81182,-5.86291 -2.0108,2e-5 -3.54713,0.73995 -4.609,2.21977 -1.05059,1.47987 -1.57588,3.96511 -1.57587,7.45573 -1e-5,2.45136 0.1525,4.31529 0.45751,5.59179 0.3163,1.27652 0.91501,2.26497 1.79616,2.96535 0.89241,0.70039 2.04466,1.05058 3.45674,1.05058 1.2539,0 2.29318,-0.27112 3.11785,-0.81335 0.82463,-0.54224 1.23695,-1.60976 1.23697,-3.20258 l 0,-0.84724 c -2e-5,-1.34428 -0.88115,-2.07291 -2.64339,-2.18588" />
        <path
           id="path3854"
           style="font-size:34.70301056px;font-style:normal;font-variant:normal;font-weight:bold;font-stretch:normal;text-align:start;line-height:125%;writing-mode:lr-tb;text-anchor:start;fill:#000000;fill-opacity:1;stroke:none;font-family:Baskerville;-inkscape-font-specification:Baskerville Bold"
           d="m 482.90606,643.27586 c -0.82466,0.59872 -1.68884,1.05058 -2.59256,1.35559 -0.89243,0.29371 -1.83005,0.44056 -2.81284,0.44056 -1.29911,0 -2.27626,-0.29371 -2.93145,-0.88113 -0.64391,-0.58742 -0.96586,-1.31604 -0.96586,-2.18588 0,-1.23132 0.64955,-2.32144 1.94866,-3.27035 1.29909,-0.94891 3.64877,-1.99949 7.04904,-3.15174 l 0,-1.25392 c -10e-6,-0.89242 -0.21464,-1.46289 -0.6439,-1.71143 -0.42928,-0.25981 -0.93762,-0.38972 -1.52503,-0.38973 -1.42338,10e-6 -2.21413,0.51966 -2.37228,1.55893 -0.11297,0.71169 -0.3389,1.23133 -0.67779,1.55892 -0.3389,0.31631 -0.86419,0.47446 -1.57587,0.47446 -0.64391,0 -1.1579,-0.16944 -1.54198,-0.50835 -0.37279,-0.35018 -0.55918,-0.75686 -0.55918,-1.22003 0,-1.05056 0.69473,-1.94299 2.08421,-2.67728 1.38947,-0.73426 3.24775,-1.1014 5.57485,-1.10141 1.29909,10e-6 2.38356,0.0791 3.25341,0.23722 0.88112,0.15817 1.58715,0.45188 2.1181,0.88114 0.54222,0.42928 0.89806,0.88114 1.06753,1.35558 0.18073,0.47447 0.2711,1.11837 0.27111,1.93171 l 0,6.43904 c -10e-6,0.9715 0.2937,1.45725 0.88114,1.45725 0.50832,0 0.83027,-0.3163 0.96585,-0.94891 l 1.40642,0 c -0.0339,1.16355 -0.46318,2.02209 -1.28781,2.57562 -0.81336,0.55353 -1.79052,0.83029 -2.93145,0.83029 -2.07858,0 -3.47935,-0.59871 -4.20232,-1.79615 m -0.30501,-1.83004 0,-3.96509 c -1.57023,0.65521 -2.59821,1.24827 -3.08395,1.77921 -0.47447,0.53094 -0.71169,1.07882 -0.71169,1.64364 0,0.42928 0.1412,0.81901 0.42362,1.1692 0.28241,0.3389 0.6552,0.50835 1.11836,0.50834 0.40667,10e-6 0.7964,-0.096 1.1692,-0.28806 0.37277,-0.19204 0.73426,-0.47445 1.08446,-0.84724" />
        <path
           id="path3856"
           style="font-size:34.70301056px;font-style:normal;font-variant:normal;font-weight:bold;font-stretch:normal;text-align:start;line-height:125%;writing-mode:lr-tb;text-anchor:start;fill:#000000;fill-opacity:1;stroke:none;font-family:Baskerville;-inkscape-font-specification:Baskerville Bold"
           d="m 499.63061,632.70229 0,7.23544 c -10e-6,1.20873 0.0791,2.01079 0.23723,2.40617 0.15814,0.38408 0.48574,0.57612 0.9828,0.57612 0.74556,0 1.34428,-0.46316 1.79615,-1.38948 l 1.66059,0.55918 c -0.85855,2.14635 -2.69423,3.21952 -5.50707,3.21952 -1.54763,0 -2.71117,-0.37279 -3.49063,-1.11836 -0.77947,-0.75687 -1.1692,-1.88652 -1.16919,-3.38896 l 0,-8.09963 -2.01644,0 0,-1.83004 0.42362,0.0169 c 1.36688,10e-6 2.53607,-0.4349 3.50758,-1.30475 0.9715,-0.86982 1.55892,-1.97688 1.76226,-3.32119 l 1.8131,0 0,4.609 4.16843,0 0,1.83004 -4.16843,0" />
        <path
           id="path3858"
           style="font-size:34.70301056px;font-style:normal;font-variant:normal;font-weight:bold;font-stretch:normal;text-align:start;line-height:125%;writing-mode:lr-tb;text-anchor:start;fill:#000000;fill-opacity:1;stroke:none;font-family:Baskerville;-inkscape-font-specification:Baskerville Bold"
           d="m 512.45784,635.37957 0,5.32068 c -1e-5,0.80206 0.12426,1.37818 0.37279,1.72837 0.24851,0.3389 0.70038,0.51399 1.35559,0.52529 l 0,1.79615 -9.43827,0 0,-1.79615 c 0.9715,0 1.58716,-0.1638 1.84698,-0.4914 0.25982,-0.3276 0.38973,-0.91502 0.38973,-1.76226 l 0,-13.9456 c 0,-0.84722 -0.13556,-1.43464 -0.40667,-1.76226 -0.25983,-0.32758 -0.86984,-0.49138 -1.83004,-0.4914 l 0,-1.79615 7.70989,-1.33864 0,11.40387 c 0.73427,-0.82464 1.52503,-1.4403 2.37228,-1.84699 0.84723,-0.40666 1.75095,-0.61 2.71117,-0.61001 1.17483,10e-6 2.17457,0.25418 2.99924,0.76251 0.82463,0.50836 1.37816,1.12402 1.66059,1.84699 0.2824,0.72299 0.4236,1.73968 0.42362,3.05007 l 0,4.72761 c -2e-5,0.86983 0.13554,1.4629 0.40668,1.7792 0.27109,0.31631 0.85287,0.47446 1.74531,0.47446 l 0,1.79615 -9.43827,0 0,-1.79615 c 0.45185,-0.0339 0.85288,-0.16945 1.20309,-0.40668 0.35018,-0.23722 0.52527,-0.85288 0.52529,-1.84698 l 0,-5.32068 c -2e-5,-1.45724 -0.5479,-2.18587 -1.64365,-2.18588 -0.45187,1e-5 -0.92633,0.18075 -1.42337,0.54223 -0.49706,0.3615 -1.01105,0.90938 -1.54198,1.64365" />
        <path
           id="path3860"
           style="font-size:34.70301056px;font-style:normal;font-variant:normal;font-weight:bold;font-stretch:normal;text-align:start;line-height:125%;writing-mode:lr-tb;text-anchor:start;fill:#000000;fill-opacity:1;stroke:none;font-family:Baskerville;-inkscape-font-specification:Baskerville Bold"
           d="m 532.46969,637.65018 c 0,1.84134 0.31065,3.22517 0.93197,4.15148 0.6326,0.92632 1.57586,1.38948 2.82979,1.38948 1.33298,0 2.55865,-0.67779 3.67702,-2.03338 l 1.57587,0.94891 c -0.64392,0.92632 -1.57023,1.69448 -2.77895,2.30449 -1.19745,0.59872 -2.52479,0.89808 -3.98203,0.89808 -2.23673,0 -4.15149,-0.67779 -5.7443,-2.03338 -1.59282,-1.36688 -2.38922,-3.20822 -2.38922,-5.52401 0,-2.31579 0.76816,-4.13453 2.3045,-5.45624 1.54762,-1.32168 3.4059,-1.98253 5.57484,-1.98254 2.18023,10e-6 3.96508,0.61002 5.35457,1.83004 1.40076,1.20874 2.10114,3.04443 2.10116,5.50707 l -9.45522,0 m -0.0169,-1.71143 4.28704,0 c -0.0678,-2.49653 -0.79642,-3.74479 -2.18588,-3.74481 -0.7004,2e-5 -1.22569,0.31067 -1.57587,0.93197 -0.3502,0.62132 -0.5253,1.55893 -0.52529,2.81284" />
        <path
           id="path3862"
           style="font-size:34.70301056px;font-style:normal;font-variant:normal;font-weight:bold;font-stretch:normal;text-align:start;line-height:125%;writing-mode:lr-tb;text-anchor:start;fill:#000000;fill-opacity:1;stroke:none;font-family:Baskerville;-inkscape-font-specification:Baskerville Bold"
           d="m 551.49874,633.8037 c 0.65519,-1.16353 1.40076,-2.03337 2.23671,-2.6095 0.83594,-0.58741 1.75661,-0.88112 2.76201,-0.88113 0.96019,10e-6 1.68882,0.30502 2.18588,0.91502 0.49704,0.59873 0.74556,1.25393 0.74558,1.9656 -2e-5,0.6665 -0.19771,1.23698 -0.59307,1.71143 -0.3954,0.47446 -0.94893,0.71169 -1.6606,0.71168 -0.38409,10e-6 -0.7004,-0.0734 -0.94891,-0.22028 -0.24853,-0.14685 -0.57613,-0.45186 -0.9828,-0.91503 -0.40668,-0.45185 -0.84725,-0.67778 -1.32169,-0.67779 -0.73429,10e-6 -1.28782,0.45187 -1.6606,1.35559 -0.36149,0.89243 -0.54224,2.23672 -0.54223,4.03287 l 0,1.50809 c -10e-6,0.83594 0.1299,1.42337 0.38973,1.76226 0.25981,0.3276 0.85853,0.4914 1.79615,0.4914 l 0.3389,0 0,1.79615 -10.28551,0 0,-1.79615 c 0.9828,0 1.60411,-0.1638 1.86393,-0.4914 0.25982,-0.3276 0.38973,-0.91502 0.38973,-1.76226 l 0,-4.84622 c 0,-0.85853 -0.13556,-1.44595 -0.40668,-1.76227 -0.25982,-0.32759 -0.88678,-0.49139 -1.88087,-0.4914 l 0,-1.79615 7.0321,-1.49114 c 0.3163,0.91503 0.49704,2.07857 0.54224,3.49063" />
        <path
           id="path3864"
           style="font-size:34.70301056px;font-style:normal;font-variant:normal;font-weight:bold;font-stretch:normal;text-align:start;line-height:125%;writing-mode:lr-tb;text-anchor:start;fill:#000000;fill-opacity:1;stroke:none;font-family:Baskerville;-inkscape-font-specification:Baskerville Bold"
           d="m 562.66537,624.43321 c 0,-0.83592 0.29936,-1.55325 0.89808,-2.15199 0.59871,-0.60999 1.31604,-0.915 2.15199,-0.91502 0.84724,2e-5 1.56457,0.29938 2.152,0.89807 0.58741,0.59874 0.88112,1.32172 0.88113,2.16894 -10e-6,0.84726 -0.29937,1.57024 -0.89808,2.16894 -0.58743,0.59873 -1.29911,0.89809 -2.13505,0.89807 -0.86984,2e-5 -1.59846,-0.30498 -2.18588,-0.91502 -0.57613,-0.62129 -0.86419,-1.33862 -0.86419,-2.15199 m 5.71041,5.87986 0,10.38718 c -10e-6,0.85854 0.13555,1.45161 0.40668,1.7792 0.2711,0.31631 0.90371,0.47446 1.89782,0.47446 l 0,1.79615 -10.37024,0 0,-1.79615 0.38973,0 c 0.96021,0 1.56457,-0.16945 1.8131,-0.50835 0.25982,-0.33889 0.38973,-0.92066 0.38973,-1.74531 l 0,-5.04956 c 0,-0.83594 -0.12991,-1.41771 -0.38973,-1.74532 -0.25982,-0.33889 -0.86419,-0.50833 -1.8131,-0.50834 l -0.38973,0 0,-1.79616 8.06574,-1.2878" />
        <path
           id="path3866"
           style="font-size:34.70301056px;font-style:normal;font-variant:normal;font-weight:bold;font-stretch:normal;text-align:start;line-height:125%;writing-mode:lr-tb;text-anchor:start;fill:#000000;fill-opacity:1;stroke:none;font-family:Baskerville;-inkscape-font-specification:Baskerville Bold"
           d="m 579.86437,635.22707 0,5.50707 c -10e-6,0.79076 0.1186,1.35559 0.35584,1.69448 0.23722,0.3389 0.66084,0.51399 1.27086,0.52529 l 0,1.79615 -9.4891,0 0,-1.79615 c 0.98279,0 1.60975,-0.1525 1.88087,-0.45751 0.27112,-0.3163 0.40668,-0.90372 0.40668,-1.76226 l 0,-4.74456 c 0,-0.85852 -0.13556,-1.44594 -0.40668,-1.76226 -0.25982,-0.32759 -0.88678,-0.49139 -1.88087,-0.4914 l 0,-1.79615 7.5235,-1.23697 c 0.19203,0.44058 0.305,1.11837 0.3389,2.03338 0.74556,-0.81334 1.52502,-1.41771 2.33838,-1.8131 0.82464,-0.40666 1.67753,-0.61 2.55867,-0.61001 1.5815,10e-6 2.82412,0.44058 3.72787,1.32169 0.9037,0.86985 1.35556,2.06728 1.35558,3.59231 l 0,5.50707 c -2e-5,0.84724 0.13554,1.42901 0.40668,1.74531 0.28239,0.31631 0.88676,0.47446 1.81309,0.47446 l 0,1.79615 -9.43827,0 0,-1.79615 c 0.47445,-0.0226 0.86983,-0.15815 1.18614,-0.40668 0.32759,-0.24852 0.49139,-0.85288 0.4914,-1.81309 l 0,-5.08345 c -10e-6,-0.92631 -0.12992,-1.55892 -0.38973,-1.89782 -0.24854,-0.33889 -0.61002,-0.50834 -1.08447,-0.50835 -0.47446,1e-5 -0.96022,0.16381 -1.45725,0.4914 -0.49706,0.32761 -0.99976,0.82466 -1.50809,1.49115" />
        <path
           id="path3868"
           style="font-size:34.70301056px;font-style:normal;font-variant:normal;font-weight:bold;font-stretch:normal;text-align:start;line-height:125%;writing-mode:lr-tb;text-anchor:start;fill:#000000;fill-opacity:1;stroke:none;font-family:Baskerville;-inkscape-font-specification:Baskerville Bold"
           d="m 597.67339,639.80217 c -1.23133,-0.3163 -2.19153,-0.90937 -2.88062,-1.77921 -0.6778,-0.86982 -1.01669,-1.80179 -1.01669,-2.79589 0,-1.59281 0.68909,-2.80154 2.06727,-3.6262 1.37817,-0.83593 3.15173,-1.2539 5.32068,-1.25391 1.19742,1e-5 2.24235,0.12427 3.13479,0.37278 0.90371,0.23724 1.65493,0.59873 2.25366,1.08447 1.18612,-0.99408 2.18022,-1.49113 2.98229,-1.49114 1.12964,10e-6 1.69447,0.54789 1.69448,1.64364 -10e-6,0.92633 -0.38975,1.38949 -1.16919,1.38948 -0.28243,10e-6 -0.67216,-0.20897 -1.16919,-0.62696 -0.19206,-0.15814 -0.3728,-0.23721 -0.54224,-0.23723 -0.23724,2e-5 -0.49706,0.12993 -0.77946,0.38974 0.42925,0.70039 0.64389,1.4855 0.6439,2.35533 -10e-6,1.36689 -0.54225,2.53043 -1.6267,3.49063 -1.09578,0.97151 -3.04443,1.51374 -5.84597,1.62671 -1.17484,0.0452 -1.9882,0.16945 -2.44005,0.37278 -0.45187,0.20334 -0.6778,0.51965 -0.67779,0.94891 -10e-6,0.59872 0.73427,0.89808 2.20282,0.89808 0.3163,0 1.04493,-0.0226 2.18589,-0.0678 0.39537,-0.0113 0.79639,-0.0169 1.20308,-0.0169 2.46263,1e-5 4.24184,0.38409 5.33762,1.15225 1.09575,0.76817 1.64363,2.00514 1.64365,3.71092 -2e-5,1.77355 -0.76254,3.21386 -2.28755,4.32093 -1.52505,1.11835 -3.83519,1.67753 -6.93044,1.67754 -2.93711,-1e-5 -4.94224,-0.37279 -6.01541,-1.11836 -1.07318,-0.74558 -1.60976,-1.58717 -1.60976,-2.52478 0,-0.58742 0.19204,-1.06753 0.57612,-1.44031 0.39538,-0.37279 0.84724,-0.55918 1.35559,-0.55918 0.40667,0 0.88678,0.12991 1.44031,0.38973 -0.0791,0.20334 -0.14121,0.39538 -0.18639,0.57613 -0.0452,0.19203 -0.0678,0.36713 -0.0678,0.52529 -10e-6,0.79075 0.39537,1.38382 1.18614,1.7792 0.79075,0.39538 1.97689,0.59307 3.55841,0.59307 1.96559,0 3.43414,-0.27677 4.40566,-0.83029 0.98278,-0.55354 1.47418,-1.23133 1.4742,-2.03338 -2e-5,-0.75688 -0.33327,-1.23698 -0.99975,-1.44031 -0.66651,-0.20334 -2.19719,-0.30501 -4.59205,-0.30501 -2.6208,0 -4.50168,-0.27677 -5.64263,-0.8303 -1.12965,-0.54223 -1.69448,-1.46855 -1.69448,-2.77895 0,-0.91502 0.29371,-1.66624 0.88113,-2.25366 0.58742,-0.59872 1.4629,-1.02798 2.62645,-1.28781 m 1.37253,-4.71066 c -10e-6,1.08448 0.16944,1.90348 0.50835,2.457 0.35018,0.54224 0.86417,0.81336 1.54198,0.81335 0.65519,10e-6 1.14659,-0.28241 1.4742,-0.84724 0.32759,-0.56482 0.49139,-1.41206 0.4914,-2.54173 -10e-6,-0.98278 -0.1977,-1.69447 -0.59307,-2.13504 -0.39539,-0.44056 -0.86985,-0.66084 -1.42337,-0.66085 -0.6665,1e-5 -1.1692,0.24289 -1.50809,0.72863 -0.32761,0.48576 -0.49141,1.21439 -0.4914,2.18588" />
        <path
           id="path3870"
           style="font-size:34.70301056px;font-style:normal;font-variant:normal;font-weight:bold;font-stretch:normal;text-align:start;line-height:125%;writing-mode:lr-tb;text-anchor:start;fill:#000000;fill-opacity:1;stroke:none;font-family:Baskerville;-inkscape-font-specification:Baskerville Bold"
           d="m 621.29448,633.19369 c 0,-2.06726 0.57612,-4.08369 1.72837,-6.04931 1.15225,-1.96558 2.71117,-3.41718 4.67678,-4.35482 1.97688,-0.94889 4.08934,-1.42334 6.33736,-1.42336 4.04415,2e-5 7.21283,1.16921 9.50605,3.50758 2.30447,2.3271 3.45672,5.18513 3.45675,8.57408 -3e-5,3.21953 -1.14663,5.98718 -3.4398,8.30297 -2.29322,2.31579 -5.41107,3.47369 -9.35355,3.47369 -2.69989,0 -5.0891,-0.57048 -7.16766,-1.71143 -2.06728,-1.14095 -3.54147,-2.67163 -4.4226,-4.59205 -0.88113,-1.9317 -1.3217,-3.84082 -1.3217,-5.72735 m 7.08294,-0.1864 c -10e-6,3.53583 0.47445,6.08885 1.42337,7.65907 0.9489,1.55892 2.36096,2.33839 4.2362,2.33838 1.95429,10e-6 3.42849,-0.71168 4.4226,-2.13504 0.99408,-1.43466 1.49113,-3.94249 1.49115,-7.52351 -2e-5,-3.27598 -0.46883,-5.72169 -1.40642,-7.33711 -0.92634,-1.61539 -2.40618,-2.42309 -4.43955,-2.42311 -1.92042,2e-5 -3.35508,0.75124 -4.30398,2.25366 -0.94892,1.50246 -1.42338,3.89168 -1.42337,7.16766" />
        <path
           id="path3872"
           style="font-size:34.70301056px;font-style:normal;font-variant:normal;font-weight:bold;font-stretch:normal;text-align:start;line-height:125%;writing-mode:lr-tb;text-anchor:start;fill:#000000;fill-opacity:1;stroke:none;font-family:Baskerville;-inkscape-font-specification:Baskerville Bold"
           d="m 657.42086,632.70229 0,7.99796 c -10e-6,0.83594 0.1299,1.42337 0.38973,1.76226 0.25981,0.3276 0.85853,0.4914 1.79615,0.4914 l 0.89808,0 0,1.79615 -11.35303,0 0,-1.79615 0.59306,0 c 0.96021,0 1.56457,-0.16945 1.8131,-0.50835 0.24852,-0.33889 0.37278,-0.92066 0.37279,-1.74531 l 0,-7.99796 -2.77895,0 0,-1.83004 2.77895,0 c -10e-6,-1.80744 0.0678,-3.17432 0.20334,-4.10065 0.13555,-0.9263 0.50834,-1.80743 1.11835,-2.6434 0.61001,-0.84722 1.46855,-1.51936 2.57562,-2.01643 1.10705,-0.50832 2.4344,-0.76249 3.98203,-0.76252 1.78485,3e-5 3.13478,0.30503 4.04982,0.91502 0.915,0.61004 1.37251,1.3895 1.37253,2.33839 -2e-5,0.66652 -0.24854,1.24829 -0.74557,1.74532 -0.48577,0.48577 -1.07319,0.72864 -1.76227,0.72862 -1.333,2e-5 -2.21413,-0.84722 -2.64339,-2.54172 -0.20335,-0.83592 -0.61567,-1.2539 -1.23697,-1.25392 -0.50836,2e-5 -0.87549,0.25984 -1.10142,0.77946 -0.21464,0.51967 -0.32196,1.41774 -0.32195,2.69423 l 0,4.1176 3.08396,0 0,1.83004 -3.08396,0" />
        <path
           id="path3874"
           style="font-size:34.70301056px;font-style:normal;font-variant:normal;font-weight:bold;font-stretch:normal;text-align:start;line-height:125%;writing-mode:lr-tb;text-anchor:start;fill:#000000;fill-opacity:1;stroke:none;font-family:Baskerville;-inkscape-font-specification:Baskerville Bold"
           d="m 678.99164,623.8232 -1.93171,0 c -1.15226,2e-5 -1.9995,0.12428 -2.54173,0.37278 -0.54224,0.24855 -0.99975,0.7456 -1.37253,1.49115 -0.36149,0.73429 -0.58177,1.60977 -0.66085,2.62645 l -1.91476,0 0,-6.54071 22.99413,0 0,6.54071 -1.91476,0 c -0.36152,-1.76225 -0.86986,-2.94838 -1.52504,-3.55842 -0.65522,-0.62129 -1.70015,-0.93194 -3.13479,-0.93196 l -1.98255,0 0,16.23314 c -1e-5,1.05059 0.17508,1.78486 0.52529,2.20283 0.36148,0.40668 1.1127,0.61002 2.25366,0.61001 l 0.59307,0 0,1.88088 -12.69167,0 0,-1.88088 0.54223,0 c 1.15224,10e-6 1.89781,-0.20898 2.23672,-0.62695 0.35018,-0.42927 0.52528,-1.1579 0.52529,-2.18589 l 0,-16.23314" />
        <path
           id="path3876"
           style="font-size:34.70301056px;font-style:normal;font-variant:normal;font-weight:bold;font-stretch:normal;text-align:start;line-height:125%;writing-mode:lr-tb;text-anchor:start;fill:#000000;fill-opacity:1;stroke:none;font-family:Baskerville;-inkscape-font-specification:Baskerville Bold"
           d="m 701.98576,637.65018 c -10e-6,1.84134 0.31065,3.22517 0.93197,4.15148 0.6326,0.92632 1.57586,1.38948 2.82978,1.38948 1.33298,0 2.55866,-0.67779 3.67703,-2.03338 l 1.57587,0.94891 c -0.64392,0.92632 -1.57023,1.69448 -2.77895,2.30449 -1.19745,0.59872 -2.52479,0.89808 -3.98204,0.89808 -2.23672,0 -4.15148,-0.67779 -5.74429,-2.03338 -1.59282,-1.36688 -2.38923,-3.20822 -2.38922,-5.52401 -10e-6,-2.31579 0.76816,-4.13453 2.30449,-5.45624 1.54763,-1.32168 3.40591,-1.98253 5.57485,-1.98254 2.18023,10e-6 3.96508,0.61002 5.35457,1.83004 1.40075,1.20874 2.10114,3.04443 2.10116,5.50707 l -9.45522,0 m -0.0169,-1.71143 4.28704,0 c -0.0678,-2.49653 -0.79642,-3.74479 -2.18588,-3.74481 -0.7004,2e-5 -1.22569,0.31067 -1.57587,0.93197 -0.3502,0.62132 -0.5253,1.55893 -0.52529,2.81284" />
        <path
           id="path3878"
           style="font-size:34.70301056px;font-style:normal;font-variant:normal;font-weight:bold;font-stretch:normal;text-align:start;line-height:125%;writing-mode:lr-tb;text-anchor:start;fill:#000000;fill-opacity:1;stroke:none;font-family:Baskerville;-inkscape-font-specification:Baskerville Bold"
           d="m 727.23356,640.47996 1.72837,0.76252 c -0.47447,1.29911 -1.33866,2.3045 -2.59256,3.01618 -1.24263,0.70039 -2.69424,1.05058 -4.35482,1.05058 -2.27062,0 -4.19668,-0.63261 -5.77819,-1.89782 -1.57022,-1.27651 -2.35533,-3.03312 -2.35533,-5.26984 0,-2.34968 0.85854,-4.24185 2.57561,-5.67652 1.71708,-1.43465 3.94249,-2.15198 6.67627,-2.15199 1.69447,10e-6 3.03311,0.31067 4.01592,0.93196 0.99408,0.62133 1.49113,1.44032 1.49115,2.457 -2e-5,0.57614 -0.19771,1.08448 -0.59307,1.52504 -0.3841,0.42928 -0.8868,0.64391 -1.50809,0.6439 -1.23134,10e-6 -2.01645,-0.80205 -2.35533,-2.40617 -0.10168,-0.47444 -0.25419,-0.81334 -0.45751,-1.01669 -0.20335,-0.20332 -0.55355,-0.30499 -1.05058,-0.305 -1.00541,10e-6 -1.76227,0.40104 -2.27061,1.20308 -0.49706,0.79077 -0.74558,1.98256 -0.74557,3.57536 -10e-6,2.18024 0.29935,3.75046 0.89807,4.71066 0.61001,0.94892 1.55892,1.42337 2.84673,1.42337 1.76225,0 3.03876,-0.85854 3.82954,-2.57562" />
        <path
           id="path3880"
           style="font-size:34.70301056px;font-style:normal;font-variant:normal;font-weight:bold;font-stretch:normal;text-align:start;line-height:125%;writing-mode:lr-tb;text-anchor:start;fill:#000000;fill-opacity:1;stroke:none;font-family:Baskerville;-inkscape-font-specification:Baskerville Bold"
           d="m 737.95963,635.37957 0,5.32068 c -10e-6,0.80206 0.12425,1.37818 0.37278,1.72837 0.24852,0.3389 0.70038,0.51399 1.35559,0.52529 l 0,1.79615 -9.43827,0 0,-1.79615 c 0.9715,0 1.58716,-0.1638 1.84699,-0.4914 0.25982,-0.3276 0.38973,-0.91502 0.38973,-1.76226 l 0,-13.9456 c 0,-0.84722 -0.13556,-1.43464 -0.40668,-1.76226 -0.25982,-0.32758 -0.86983,-0.49138 -1.83004,-0.4914 l 0,-1.79615 7.7099,-1.33864 0,11.40387 c 0.73427,-0.82464 1.52502,-1.4403 2.37227,-1.84699 0.84723,-0.40666 1.75096,-0.61 2.71118,-0.61001 1.17482,10e-6 2.17457,0.25418 2.99923,0.76251 0.82463,0.50836 1.37816,1.12402 1.6606,1.84699 0.28239,0.72299 0.4236,1.73968 0.42362,3.05007 l 0,4.72761 c -2e-5,0.86983 0.13554,1.4629 0.40667,1.7792 0.2711,0.31631 0.85287,0.47446 1.74532,0.47446 l 0,1.79615 -9.43827,0 0,-1.79615 c 0.45185,-0.0339 0.85288,-0.16945 1.20308,-0.40668 0.35018,-0.23722 0.52528,-0.85288 0.52529,-1.84698 l 0,-5.32068 c -10e-6,-1.45724 -0.54789,-2.18587 -1.64365,-2.18588 -0.45187,1e-5 -0.92632,0.18075 -1.42336,0.54223 -0.49706,0.3615 -1.01105,0.90938 -1.54198,1.64365" />
        <path
           id="path3882"
           style="font-size:34.70301056px;font-style:normal;font-variant:normal;font-weight:bold;font-stretch:normal;text-align:start;line-height:125%;writing-mode:lr-tb;text-anchor:start;fill:#000000;fill-opacity:1;stroke:none;font-family:Baskerville;-inkscape-font-specification:Baskerville Bold"
           d="m 753.53193,624.43321 c 0,-0.83592 0.29936,-1.55325 0.89808,-2.15199 0.59871,-0.60999 1.31604,-0.915 2.15199,-0.91502 0.84724,2e-5 1.56457,0.29938 2.152,0.89807 0.58741,0.59874 0.88112,1.32172 0.88113,2.16894 -10e-6,0.84726 -0.29937,1.57024 -0.89808,2.16894 -0.58743,0.59873 -1.29911,0.89809 -2.13505,0.89807 -0.86984,2e-5 -1.59846,-0.30498 -2.18588,-0.91502 -0.57613,-0.62129 -0.86419,-1.33862 -0.86419,-2.15199 m 5.71041,5.87986 0,10.38718 c -10e-6,0.85854 0.13555,1.45161 0.40668,1.7792 0.27111,0.31631 0.90371,0.47446 1.89782,0.47446 l 0,1.79615 -10.37024,0 0,-1.79615 0.38973,0 c 0.96021,0 1.56457,-0.16945 1.8131,-0.50835 0.25982,-0.33889 0.38973,-0.92066 0.38973,-1.74531 l 0,-5.04956 c 0,-0.83594 -0.12991,-1.41771 -0.38973,-1.74532 -0.25982,-0.33889 -0.86419,-0.50833 -1.8131,-0.50834 l -0.38973,0 0,-1.79616 8.06574,-1.2878" />
        <path
           id="path3884"
           style="font-size:34.70301056px;font-style:normal;font-variant:normal;font-weight:bold;font-stretch:normal;text-align:start;line-height:125%;writing-mode:lr-tb;text-anchor:start;fill:#000000;fill-opacity:1;stroke:none;font-family:Baskerville;-inkscape-font-specification:Baskerville Bold"
           d="m 769.56175,637.65018 c -10e-6,1.84134 0.31065,3.22517 0.93197,4.15148 0.63259,0.92632 1.57586,1.38948 2.82978,1.38948 1.33298,0 2.55866,-0.67779 3.67703,-2.03338 l 1.57587,0.94891 c -0.64392,0.92632 -1.57024,1.69448 -2.77895,2.30449 -1.19745,0.59872 -2.52479,0.89808 -3.98204,0.89808 -2.23672,0 -4.15149,-0.67779 -5.74429,-2.03338 -1.59282,-1.36688 -2.38923,-3.20822 -2.38923,-5.52401 0,-2.31579 0.76817,-4.13453 2.3045,-5.45624 1.54762,-1.32168 3.40591,-1.98253 5.57485,-1.98254 2.18022,10e-6 3.96508,0.61002 5.35457,1.83004 1.40075,1.20874 2.10114,3.04443 2.10116,5.50707 l -9.45522,0 m -0.0169,-1.71143 4.28704,0 c -0.0678,-2.49653 -0.79642,-3.74479 -2.18589,-3.74481 -0.70039,2e-5 -1.22568,0.31067 -1.57586,0.93197 -0.35021,0.62132 -0.5253,1.55893 -0.52529,2.81284" />
        <path
           id="path3886"
           style="font-size:34.70301056px;font-style:normal;font-variant:normal;font-weight:bold;font-stretch:normal;text-align:start;line-height:125%;writing-mode:lr-tb;text-anchor:start;fill:#000000;fill-opacity:1;stroke:none;font-family:Baskerville;-inkscape-font-specification:Baskerville Bold"
           d="m 781.89758,645.30924 -0.11861,-4.60899 1.66059,0 c 0.88113,1.90912 2.49654,2.86367 4.84623,2.86367 0.98279,0 1.79614,-0.16944 2.44005,-0.50834 0.64389,-0.3389 0.96584,-0.72298 0.96586,-1.15225 -2e-5,-0.37278 -0.17511,-0.66085 -0.52529,-0.86419 -0.3615,-0.19203 -1.16921,-0.41796 -2.42311,-0.67779 -1.94302,-0.39537 -3.37768,-0.76816 -4.30399,-1.11836 -0.92632,-0.36148 -1.67189,-0.90936 -2.23672,-1.64365 -0.56483,-0.74556 -0.84724,-1.5928 -0.84724,-2.54172 0,-1.41206 0.57612,-2.55301 1.72837,-3.42286 1.15225,-0.88111 2.69423,-1.32168 4.62594,-1.32169 1.49114,10e-6 3.01052,0.29372 4.55816,0.88113 0.27111,-0.25981 0.48574,-0.55352 0.6439,-0.88113 l 1.40642,0 0.15251,4.20231 -1.35559,0 c -0.86984,-1.72836 -2.60386,-2.59254 -5.20206,-2.59255 -0.84725,10e-6 -1.54199,0.14121 -2.08421,0.42362 -0.54224,0.27113 -0.81336,0.62132 -0.81336,1.05058 0,0.45187 0.22028,0.78512 0.66085,0.99974 0.42927,0.21464 1.47984,0.48576 3.15174,0.81335 1.73966,0.3502 3.04441,0.70605 3.91426,1.06753 0.88111,0.36149 1.5702,0.89243 2.06726,1.59281 0.50833,0.6891 0.76251,1.49115 0.76252,2.40617 -10e-6,1.47985 -0.65521,2.68858 -1.9656,3.62619 -1.31041,0.93761 -2.93146,1.40642 -4.86316,1.40642 -1.47986,0 -3.02749,-0.3163 -4.64289,-0.94891 -0.30501,0.22593 -0.53094,0.54223 -0.67779,0.94891 l -1.52504,0" />
        <path
           id="path3888"
           style="font-size:34.70301056px;font-style:normal;font-variant:normal;font-weight:bold;font-stretch:normal;text-align:start;line-height:125%;writing-mode:lr-tb;text-anchor:start;fill:#000000;fill-opacity:1;stroke:none;font-family:Baskerville;-inkscape-font-specification:Baskerville Bold"
           d="m 799.11353,651.4941 0,-2.03338 c 1.06187,0 2.05032,-0.34455 2.96534,-1.03363 0.91502,-0.6778 1.37253,-1.49115 1.37253,-2.44006 0,-0.56482 -0.22594,-0.84724 -0.67779,-0.84724 -0.10168,0 -0.30501,0.0395 -0.61002,0.11862 -0.3163,0.0678 -0.56483,0.10166 -0.74557,0.10166 -0.63261,0 -1.22568,-0.24852 -1.7792,-0.74557 -0.54224,-0.50834 -0.81336,-1.20308 -0.81336,-2.08421 0,-0.85854 0.28241,-1.59281 0.84724,-2.20283 0.56483,-0.6213 1.34429,-0.93196 2.33839,-0.93197 1.20873,10e-6 2.16328,0.45187 2.86368,1.35559 0.71167,0.89243 1.06751,2.11811 1.06752,3.67703 -10e-6,2.18023 -0.6665,3.88601 -1.99949,5.11734 -1.333,1.24261 -2.94275,1.89216 -4.82927,1.94865" />
        <path
           id="path3890"
           style="font-size:34.70301056px;font-style:normal;font-variant:normal;font-weight:bold;font-stretch:normal;text-align:start;line-height:125%;writing-mode:lr-tb;text-anchor:start;fill:#000000;fill-opacity:1;stroke:none;font-family:Baskerville;-inkscape-font-specification:Baskerville Bold"
           d="m 817.97313,623.65375 0,-1.88088 12.14944,0 0,1.88088 -0.35584,0 c -1.14097,2e-5 -1.88654,0.21465 -2.23672,0.6439 -0.33891,0.41799 -0.50835,1.14097 -0.50834,2.16894 l 0,13.58975 c -10e-6,1.05059 0.17508,1.78486 0.52528,2.20283 0.36148,0.40668 1.10141,0.61002 2.21978,0.61001 l 0.35584,0 0,1.88088 -12.14944,0 0,-1.88088 c 1.22002,10e-6 2.02772,-0.18639 2.42311,-0.55917 0.40667,-0.37279 0.61001,-1.12401 0.61001,-2.25367 l 0,-13.58975 c 0,-1.09575 -0.19204,-1.83567 -0.57612,-2.21977 -0.37279,-0.39536 -1.19179,-0.59305 -2.457,-0.59307" />
        <path
           id="path3892"
           style="font-size:34.70301056px;font-style:normal;font-variant:normal;font-weight:bold;font-stretch:normal;text-align:start;line-height:125%;writing-mode:lr-tb;text-anchor:start;fill:#000000;fill-opacity:1;stroke:none;font-family:Baskerville;-inkscape-font-specification:Baskerville Bold"
           d="m 839.66252,635.22707 0,5.50707 c 0,0.79076 0.11861,1.35559 0.35585,1.69448 0.23721,0.3389 0.66083,0.51399 1.27086,0.52529 l 0,1.79615 -9.48911,0 0,-1.79615 c 0.9828,0 1.60976,-0.1525 1.88088,-0.45751 0.27111,-0.3163 0.40667,-0.90372 0.40667,-1.76226 l 0,-4.74456 c 0,-0.85852 -0.13556,-1.44594 -0.40667,-1.76226 -0.25982,-0.32759 -0.88678,-0.49139 -1.88088,-0.4914 l 0,-1.79615 7.52351,-1.23697 c 0.19203,0.44058 0.305,1.11837 0.33889,2.03338 0.74557,-0.81334 1.52503,-1.41771 2.33839,-1.8131 0.82464,-0.40666 1.67753,-0.61 2.55867,-0.61001 1.5815,10e-6 2.82412,0.44058 3.72786,1.32169 0.90371,0.86985 1.35557,2.06728 1.35559,3.59231 l 0,5.50707 c -2e-5,0.84724 0.13554,1.42901 0.40667,1.74531 0.2824,0.31631 0.88676,0.47446 1.8131,0.47446 l 0,1.79615 -9.43827,0 0,-1.79615 c 0.47444,-0.0226 0.86982,-0.15815 1.18614,-0.40668 0.32759,-0.24852 0.49139,-0.85288 0.4914,-1.81309 l 0,-5.08345 c -10e-6,-0.92631 -0.12992,-1.55892 -0.38973,-1.89782 -0.24854,-0.33889 -0.61003,-0.50834 -1.08447,-0.50835 -0.47447,1e-5 -0.96022,0.16381 -1.45726,0.4914 -0.49705,0.32761 -0.99975,0.82466 -1.50809,1.49115" />
        <path
           id="path3894"
           style="font-size:34.70301056px;font-style:normal;font-variant:normal;font-weight:bold;font-stretch:normal;text-align:start;line-height:125%;writing-mode:lr-tb;text-anchor:start;fill:#00006f;fill-opacity:1;stroke:none;font-family:Baskerville;-inkscape-font-specification:Baskerville Bold"
           d="m 868.97708,645.22452 -5.59179,-18.19875 c -0.49705,-1.62668 -0.93197,-2.59254 -1.30475,-2.89757 -0.36149,-0.31628 -0.93762,-0.47443 -1.72837,-0.47445 l 0,-1.88088 10.4719,0 0,1.88088 c -1.25393,2e-5 -1.88088,0.3841 -1.88088,1.15225 0,0.44058 0.0904,0.96022 0.27112,1.55892 l 3.21952,10.25162 4.84622,-14.84367 2.62645,0 5.81208,14.84367 2.57561,-9.31965 c 0.19201,-0.72296 0.28803,-1.27649 0.28806,-1.6606 -3e-5,-1.32167 -0.75125,-1.98252 -2.25366,-1.98254 l 0,-1.88088 7.35406,0 0,1.88088 c -0.68913,2e-5 -1.28784,0.2429 -1.79616,0.72863 -0.50837,0.47447 -1.10144,1.92043 -1.7792,4.33787 l -4.609,16.50427 -2.64339,0 -5.99847,-15.4198 -5.15123,15.4198 -2.72812,0" />
        <path
           id="path3896"
           style="font-size:34.70301056px;font-style:normal;font-variant:normal;font-weight:bold;font-stretch:normal;text-align:start;line-height:125%;writing-mode:lr-tb;text-anchor:start;fill:#d59a36;fill-opacity:1;stroke:#000000;stroke-opacity:1;font-family:Baskerville;-inkscape-font-specification:Baskerville Bold"
           d="m 904.29006,643.27586 c -0.82465,0.59872 -1.68884,1.05058 -2.59256,1.35559 -0.89243,0.29371 -1.83004,0.44056 -2.81284,0.44056 -1.2991,0 -2.27626,-0.29371 -2.93145,-0.88113 -0.64391,-0.58742 -0.96586,-1.31604 -0.96586,-2.18588 0,-1.23132 0.64955,-2.32144 1.94866,-3.27035 1.2991,-0.94891 3.64878,-1.99949 7.04905,-3.15174 l 0,-1.25392 c -10e-6,-0.89242 -0.21465,-1.46289 -0.64391,-1.71143 -0.42928,-0.25981 -0.93762,-0.38972 -1.52503,-0.38973 -1.42337,10e-6 -2.21413,0.51966 -2.37228,1.55893 -0.11297,0.71169 -0.3389,1.23133 -0.67779,1.55892 -0.3389,0.31631 -0.86419,0.47446 -1.57587,0.47446 -0.64391,0 -1.1579,-0.16944 -1.54198,-0.50835 -0.37279,-0.35018 -0.55918,-0.75686 -0.55918,-1.22003 0,-1.05056 0.69474,-1.94299 2.08422,-2.67728 1.38947,-0.73426 3.24775,-1.1014 5.57484,-1.10141 1.2991,10e-6 2.38357,0.0791 3.25341,0.23722 0.88112,0.15817 1.58715,0.45188 2.11811,0.88114 0.54221,0.42928 0.89806,0.88114 1.06752,1.35558 0.18073,0.47447 0.2711,1.11837 0.27112,1.93171 l 0,6.43904 c -2e-5,0.9715 0.29369,1.45725 0.88113,1.45725 0.50833,0 0.83028,-0.3163 0.96585,-0.94891 l 1.40642,0 c -0.0339,1.16355 -0.46317,2.02209 -1.2878,2.57562 -0.81337,0.55353 -1.79052,0.83029 -2.93146,0.83029 -2.07858,0 -3.47935,-0.59871 -4.20232,-1.79615 m -0.305,-1.83004 0,-3.96509 c -1.57023,0.65521 -2.59822,1.24827 -3.08396,1.77921 -0.47446,0.53094 -0.71169,1.07882 -0.71168,1.64364 -1e-5,0.42928 0.1412,0.81901 0.42362,1.1692 0.2824,0.3389 0.65519,0.50835 1.11835,0.50834 0.40667,10e-6 0.7964,-0.096 1.1692,-0.28806 0.37277,-0.19204 0.73426,-0.47445 1.08447,-0.84724" />
        <path
           id="path3898"
           style="font-size:34.70301056px;font-style:normal;font-variant:normal;font-weight:bold;font-stretch:normal;text-align:start;line-height:125%;writing-mode:lr-tb;text-anchor:start;fill:#00006f;fill-opacity:1;stroke:none;font-family:Baskerville;-inkscape-font-specification:Baskerville Bold"
           d="m 927.45365,640.47996 1.72837,0.76252 c -0.47447,1.29911 -1.33865,2.3045 -2.59256,3.01618 -1.24263,0.70039 -2.69424,1.05058 -4.35482,1.05058 -2.27061,0 -4.19667,-0.63261 -5.77819,-1.89782 -1.57022,-1.27651 -2.35533,-3.03312 -2.35533,-5.26984 0,-2.34968 0.85854,-4.24185 2.57562,-5.67652 1.71707,-1.43465 3.94249,-2.15198 6.67626,-2.15199 1.69447,10e-6 3.03311,0.31067 4.01592,0.93196 0.99409,0.62133 1.49113,1.44032 1.49115,2.457 -2e-5,0.57614 -0.19771,1.08448 -0.59307,1.52504 -0.3841,0.42928 -0.88679,0.64391 -1.50809,0.6439 -1.23134,10e-6 -2.01645,-0.80205 -2.35533,-2.40617 -0.10168,-0.47444 -0.25418,-0.81334 -0.45751,-1.01669 -0.20335,-0.20332 -0.55354,-0.30499 -1.05058,-0.305 -1.0054,10e-6 -1.76227,0.40104 -2.27061,1.20308 -0.49705,0.79077 -0.74558,1.98256 -0.74557,3.57536 -1e-5,2.18024 0.29935,3.75046 0.89808,4.71066 0.61,0.94892 1.55891,1.42337 2.84673,1.42337 1.76225,0 3.03876,-0.85854 3.82953,-2.57562" />
        <path
           id="path3900"
           style="font-size:34.70301056px;font-style:normal;font-variant:normal;font-weight:bold;font-stretch:normal;text-align:start;line-height:125%;writing-mode:lr-tb;text-anchor:start;fill:#00006f;fill-opacity:1;stroke:none;font-family:Baskerville;-inkscape-font-specification:Baskerville Bold"
           d="m 931.1307,637.76879 c 0,-2.32708 0.82465,-4.15147 2.47395,-5.47318 1.64929,-1.32168 3.64313,-1.98253 5.98152,-1.98254 2.28189,10e-6 4.27009,0.64391 5.96458,1.93171 1.69447,1.27652 2.54171,3.1235 2.54173,5.54096 -2e-5,2.2932 -0.83032,4.12324 -2.49089,5.49012 -1.66061,1.35559 -3.67139,2.03338 -6.03236,2.03338 -2.30451,0 -4.28705,-0.6439 -5.94764,-1.93171 -1.66059,-1.2991 -2.49089,-3.16868 -2.49089,-5.60874 m 5.81208,-0.16945 c -10e-6,2.16895 0.19768,3.68833 0.59307,4.55816 0.40667,0.85854 1.10705,1.28781 2.10116,1.28781 0.80204,0 1.4403,-0.36149 1.91476,-1.08447 0.48574,-0.72298 0.72862,-2.26495 0.72863,-4.62594 -10e-6,-2.14633 -0.21465,-3.59794 -0.6439,-4.35482 -0.42928,-0.76815 -1.10708,-1.15224 -2.03338,-1.15225 -0.73429,10e-6 -1.36125,0.32761 -1.88088,0.9828 -0.51965,0.64392 -0.77947,2.10682 -0.77946,4.38871" />
        <path
           id="path3902"
           style="font-size:34.70301056px;font-style:normal;font-variant:normal;font-weight:bold;font-stretch:normal;text-align:start;line-height:125%;writing-mode:lr-tb;text-anchor:start;fill:#000000;fill-opacity:1;stroke:none;font-family:Baskerville;-inkscape-font-specification:Baskerville Bold"
           d="m 951.68478,651.4941 0,-2.03338 c 1.06188,0 2.05032,-0.34455 2.96535,-1.03363 0.91501,-0.6778 1.37252,-1.49115 1.37253,-2.44006 -10e-6,-0.56482 -0.22594,-0.84724 -0.67779,-0.84724 -0.10168,0 -0.30502,0.0395 -0.61002,0.11862 -0.31631,0.0678 -0.56483,0.10166 -0.74557,0.10166 -0.63261,0 -1.22568,-0.24852 -1.77921,-0.74557 -0.54223,-0.50834 -0.81335,-1.20308 -0.81335,-2.08421 0,-0.85854 0.28241,-1.59281 0.84724,-2.20283 0.56483,-0.6213 1.34429,-0.93196 2.33839,-0.93197 1.20872,10e-6 2.16328,0.45187 2.86368,1.35559 0.71167,0.89243 1.06751,2.11811 1.06752,3.67703 -10e-6,2.18023 -0.6665,3.88601 -1.99949,5.11734 -1.333,1.24261 -2.94276,1.89216 -4.82928,1.94865" />
        <path
           id="path3904"
           style="font-size:34.70301056px;font-style:normal;font-variant:normal;font-weight:bold;font-stretch:normal;text-align:start;line-height:125%;writing-mode:lr-tb;text-anchor:start;fill:#000000;fill-opacity:1;stroke:none;font-family:Baskerville;-inkscape-font-specification:Baskerville Bold"
           d="m 978.98288,623.8232 -1.93171,0 c -1.15226,2e-5 -1.9995,0.12428 -2.54173,0.37278 -0.54223,0.24855 -0.99974,0.7456 -1.37253,1.49115 -0.36149,0.73429 -0.58177,1.60977 -0.66085,2.62645 l -1.91476,0 0,-6.54071 22.99413,0 0,6.54071 -1.91476,0 c -0.36151,-1.76225 -0.86986,-2.94838 -1.52504,-3.55842 -0.65522,-0.62129 -1.70015,-0.93194 -3.13479,-0.93196 l -1.98255,0 0,16.23314 c -10e-6,1.05059 0.17508,1.78486 0.52529,2.20283 0.36148,0.40668 1.1127,0.61002 2.25367,0.61001 l 0.59306,0 0,1.88088 -12.69167,0 0,-1.88088 0.54223,0 c 1.15224,10e-6 1.89781,-0.20898 2.23672,-0.62695 0.35018,-0.42927 0.52528,-1.1579 0.52529,-2.18589 l 0,-16.23314" />
        <path
           id="path3906"
           style="font-size:34.70301056px;font-style:normal;font-variant:normal;font-weight:bold;font-stretch:normal;text-align:start;line-height:125%;writing-mode:lr-tb;text-anchor:start;fill:#000000;fill-opacity:1;stroke:none;font-family:Baskerville;-inkscape-font-specification:Baskerville Bold"
           d="m 1006.9588,635.85403 -3.5753,3.91425 c -0.6214,0.6891 -0.932,1.26522 -0.932,1.72837 0,0.41798 0.1694,0.75123 0.5083,0.99975 0.3389,0.24852 1.0563,0.37279 2.152,0.37278 l 0,1.88088 -10.09909,0 0,-1.88088 c 0.88113,10e-6 1.72837,-0.20333 2.54172,-0.61001 0.81335,-0.41797 1.81874,-1.27651 3.01617,-2.57561 l 5.0835,-5.50707 -5.1513,-6.65932 c -1.38945,-1.79613 -2.3553,-2.88625 -2.89753,-3.27035 -0.54224,-0.39536 -1.41772,-0.59305 -2.62645,-0.59307 l 0,-1.88088 12.96278,0 0,1.88088 c -0.7795,2e-5 -1.2991,0.0622 -1.5589,0.18639 -0.2598,0.11299 -0.3898,0.33327 -0.3897,0.66085 -1e-4,0.44059 0.1863,0.90939 0.5591,1.40642 l 3.1687,4.06676 3.4907,-3.86342 c 0.4631,-0.51962 0.6947,-1.00537 0.6947,-1.45726 0,-0.66647 -0.7343,-0.99972 -2.2028,-0.99974 l 0,-1.88088 9.1841,0 0,1.88088 c -1.2314,0.12428 -2.2368,0.44623 -3.0162,0.96585 -0.7795,0.51966 -1.751,1.41774 -2.9145,2.69423 l -3.8973,4.28704 5.3545,7.03211 c 1.5476,2.02208 2.6886,3.23646 3.4229,3.64314 0.7342,0.39538 1.5532,0.59307 2.457,0.59306 l 0,1.88088 -14.0303,0 0,-1.88088 c 1.2426,10e-6 2.0107,-0.096 2.3045,-0.28806 0.305,-0.20333 0.4575,-0.49704 0.4575,-0.88113 0,-0.44056 -0.2147,-0.93761 -0.6439,-1.49114 l -3.4229,-4.35482" />
      </g>
    </g>
  </g>
</svg>
